<svg width="90" height="90" viewBox="0 0 90 90" fill="none" xmlns="http://www.w3.org/2000/svg">
<path fill-rule="evenodd" clip-rule="evenodd" d="M81.011 60C82.571 56.2592 83.565 52.2236 83.8863 48H71.9409C71.7758 52.1815 71.2679 56.2074 70.4637 60H81.011ZM83.8863 42C83.565 37.7764 82.571 33.7408 81.011 30H70.4637C71.2679 33.7926 71.7758 37.8185 71.9409 42H83.8863ZM77.8691 24H68.8858C67.1393 18.4932 64.7273 13.6633 61.8283 9.8075C68.4063 12.9587 73.9636 17.8998 77.8691 24ZM28.1717 9.8075C21.5937 12.9587 16.0364 17.8998 12.1309 24H21.1142C22.8607 18.4932 25.2727 13.6633 28.1717 9.8075ZM8.98897 30C7.429 33.7408 6.43495 37.7764 6.11366 42H18.0591C18.2242 37.8185 18.7321 33.7926 19.5363 30H8.98897ZM6.11366 48C6.43495 52.2236 7.429 56.2592 8.98897 60H19.5363C18.7321 56.2074 18.2242 52.1815 18.0591 48H6.11366ZM12.1309 66C16.0364 72.1002 21.5937 77.0413 28.1717 80.1925C25.2727 76.3367 22.8607 71.5068 21.1142 66H12.1309ZM0 45.0001V42H0.0984192C1.57689 19.5375 19.5375 1.57689 42 0.0984192V0H44.9998H44.9999H48V0.0984192C70.4625 1.57689 88.4231 19.5375 89.9016 42H90V44.9999V48H89.9016C88.4231 70.4625 70.4625 88.4231 48 89.9016V90H45H42V89.9016C19.5375 88.4231 1.57689 70.4625 0.0984192 48H0V45.0001ZM61.8283 80.1925C68.4063 77.0413 73.9636 72.1002 77.8691 66H68.8858C67.1393 71.5068 64.7273 76.3367 61.8283 80.1925ZM62.6987 24C59.478 14.6578 54.1717 8.03432 48 6.39496V24H62.6987ZM42 6.39496C35.8283 8.03432 30.522 14.6578 27.3013 24H42V6.39496ZM42 66V83.605C35.828 81.9656 30.5217 75.3419 27.3013 66H42ZM48 83.605V66H62.6987C59.4783 75.3419 54.172 81.9656 48 83.605ZM64.3905 60H48V48H65.9388C65.7658 52.2235 65.2305 56.2593 64.3905 60ZM42 48V60H25.6095C24.7695 56.2593 24.2342 52.2235 24.0612 48H42ZM65.9388 42H48V30H64.3905C65.2305 33.7407 65.7658 37.7765 65.9388 42ZM42 30V42H24.0612C24.2342 37.7765 24.7695 33.7407 25.6095 30H42Z" fill="white"/>
<circle cx="25" cy="27" r="10" fill="#4FA150"/>
<circle cx="69" cy="45" r="5" fill="#4B99FF"/>
<circle cx="45" cy="63" r="5" fill="#F0C500"/>
</svg>
