<svg width="22" height="16" viewBox="0 0 22 16" fill="none" xmlns="http://www.w3.org/2000/svg">
<path fill-rule="evenodd" clip-rule="evenodd" d="M18.8066 1.41772C19.6699 1.65479 20.3516 2.33228 20.5801 3.19031C21 4.74841 21 8 21 8C21 8 21 11.2516 20.5918 12.8097C20.3516 13.6791 19.6816 14.3564 18.8184 14.5823C17.25 15 11 15 11 15C11 15 4.75 15 3.19336 14.5823C2.33008 14.3452 1.64844 13.6677 1.41992 12.8097C1 11.2516 1 8 1 8C1 8 1 4.74841 1.4082 3.19031C1.64844 2.32092 2.31836 1.64355 3.18164 1.41772C4.75 1 11 1 11 1C11 1 17.25 1 18.8066 1.41772ZM14.1816 8L8.95508 5.04199V10.9581L14.1816 8Z" fill="white" fill-opacity="0.75"/>
</svg>
