<svg width="18" height="20" viewBox="0 0 18 20" fill="none" xmlns="http://www.w3.org/2000/svg">
<path d="M6.23736 18.9999C6.16968 18.9999 6.09455 18.9927 6.01147 18.9773L6.04537 18.5988L6.38017 18.5987C6.43575 18.583 6.47989 18.5579 6.51406 18.5266C6.57257 18.4729 6.60635 18.3986 6.62021 18.3217C6.62484 18.2959 6.62707 18.2675 6.62707 18.2375C6.62707 18.032 6.62526 17.84 6.62287 17.5825C6.62016 17.2932 6.61678 16.9338 6.61398 16.5217C3.56206 17.0841 2.84957 14.9086 2.82032 14.815C2.3347 13.5692 1.66686 13.2515 1.66493 13.2506L1.63987 13.2364C0.101648 12.1694 1.81945 12.1916 1.82432 12.1916H1.83612C3.0392 12.2775 3.67995 13.4034 3.71486 13.4663L3.71499 13.4662C4.08069 14.1021 4.53063 14.4157 4.9777 14.5453C5.6262 14.7332 6.28016 14.5431 6.66645 14.381C6.72003 14.0596 6.8083 13.7816 6.91846 13.5462C6.99268 13.3875 7.0771 13.2476 7.16788 13.1262C6.00243 12.9583 4.83447 12.6156 3.92208 11.8361C2.90974 10.9711 2.22362 9.58174 2.22362 7.32229H2.22436C2.22446 6.69047 2.3322 6.11489 2.52883 5.5948C2.72372 5.07931 3.00615 4.61747 3.35786 4.20859C3.29057 4.01452 3.19713 3.67631 3.16762 3.22856C3.13155 2.68096 3.19041 1.96647 3.50964 1.1473L3.517 1.13234C3.5172 1.13195 3.65578 1.01215 3.85169 1.00209C3.98091 0.995458 4.17595 1.00234 4.43918 1.05636C4.95183 1.16156 5.73708 1.45009 6.82117 2.18466C7.24948 2.06779 7.69153 1.97898 8.13993 1.91777C8.62509 1.85156 9.1191 1.81759 9.61246 1.81535H9.61394C10.1067 1.81759 10.6002 1.85157 11.0851 1.91774C11.5337 1.97898 11.9761 2.06787 12.4052 2.18473C14.5844 0.707709 15.5887 1.03347 15.5916 1.03435L15.6794 1.06077L15.7132 1.1473C16.0337 1.96755 16.0931 2.68136 16.0574 3.2278C16.0281 3.67545 15.935 4.01353 15.868 4.20775C16.2195 4.61561 16.501 5.07687 16.6955 5.59216C16.8925 6.11434 17 6.6909 17 7.32229C17 9.588 16.3129 10.9767 15.2985 11.8386C14.3855 12.6144 13.2161 12.9527 12.0482 13.1177C12.1848 13.2989 12.3075 13.522 12.4034 13.7876C12.5324 14.1451 12.6133 14.5806 12.6133 15.0954C12.6133 16.014 12.6066 16.9697 12.6022 17.6025C12.6005 17.8347 12.5993 18.0082 12.5993 18.2375H12.5986C12.5986 18.2661 12.6015 18.2968 12.6076 18.3288C12.6221 18.4053 12.6555 18.4785 12.7125 18.5304C12.7438 18.5589 12.7835 18.5821 12.8327 18.5975L13.1865 18.5974L13.2219 18.9759C13.1381 18.9923 13.0588 19 12.9841 19C12.9118 19 12.8452 18.9927 12.784 18.979L6.43147 18.9803C6.37186 18.993 6.30724 18.9999 6.23735 18.9999L6.23736 18.9999Z" fill="white" fill-opacity="0.75"/>
</svg>
