<svg width="20" height="20" viewBox="0 0 20 20" fill="none" xmlns="http://www.w3.org/2000/svg">
<path d="M9.19896 11.5436L8.42357 9.22715L10.8298 8.42063L11.6052 10.737L9.19896 11.5436Z" fill="white" fill-opacity="0.75"/>
<path fill-rule="evenodd" clip-rule="evenodd" d="M7.51732 1.73899C13.7146 -0.0932841 16.3806 1.35325 18.2419 7.52488C20.1052 13.6965 18.6599 16.3967 12.4626 18.261C6.26536 20.0932 3.6013 18.6467 1.73802 12.4751C-0.0920585 6.27122 1.35325 3.60325 7.51732 1.73899ZM13.9724 11.9286L15.1286 11.5429C15.6091 11.3822 15.8669 10.8357 15.7068 10.3536C15.5447 9.87144 14.9997 9.61423 14.5173 9.775L13.3611 10.1607L12.5915 7.84629L13.779 7.46055C14.2615 7.2999 14.5173 6.7534 14.3572 6.27122C14.197 5.78904 13.6501 5.53196 13.1697 5.69273L12.0134 6.07835L11.5954 4.85691C11.4353 4.37473 10.8904 4.11765 10.4079 4.2783C9.92552 4.43906 9.66966 4.98545 9.82982 5.46763L10.1833 6.68919L7.77513 7.49278L7.35716 6.27122C7.197 5.78904 6.65013 5.53196 6.16966 5.69273C5.68724 5.85337 5.43138 6.39988 5.59154 6.88206L6.0095 8.10349L4.85325 8.48924C4.37083 8.64988 4.11497 9.19639 4.27513 9.67857C4.40404 10.0643 4.7556 10.3214 5.14232 10.3214C5.23802 10.3214 5.36693 10.2893 5.46263 10.2572L6.61888 9.87144L7.39036 12.1858L6.23411 12.5715C5.75169 12.7323 5.49583 13.2787 5.65599 13.7608C5.78294 14.1466 6.13646 14.4037 6.52318 14.4037C6.61888 14.4037 6.74779 14.3716 6.84349 14.3395L7.99974 13.9537L8.41771 15.1751C8.54466 15.5609 8.89818 15.8181 9.28489 15.8181C9.3806 15.8181 9.5095 15.7859 9.60521 15.7538C10.0876 15.593 10.3435 15.0466 10.1833 14.5644L9.76536 13.343L12.1736 12.5394L12.6228 13.7608C12.7517 14.1466 13.1052 14.4037 13.49 14.4037C13.5876 14.4037 13.7146 14.3716 13.8122 14.3395C14.2927 14.1787 14.5505 13.6323 14.3904 13.1501L13.9724 11.9286Z" fill="white" fill-opacity="0.75"/>
</svg>
