<svg width="20" height="20" viewBox="0 0 20 20" fill="none" xmlns="http://www.w3.org/2000/svg">
<path d="M10.0003 1C5.02934 1 1 5.0295 1 9.99987C1 14.9705 5.02934 19 10.0003 19C14.9707 19 19 14.9705 19 9.99987C19 5.0295 14.9707 1 10.0003 1ZM7.92859 14.1534C5.63967 14.1534 3.78571 12.2947 3.78571 10C3.78571 7.70528 5.63967 5.84663 7.92859 5.84663C9.0472 5.84663 9.98179 6.25931 10.6992 6.92906L9.53123 8.09984V8.09722C9.09627 7.68187 8.54483 7.46901 7.92859 7.46901C6.56149 7.46901 5.45067 8.62677 5.45067 9.99742C5.45067 11.3679 6.56149 12.5284 7.92859 12.5284C9.16887 12.5284 10.0129 11.8171 10.1866 10.8411H7.92859V9.22124H11.8254C11.8772 9.49898 11.9056 9.78972 11.9056 10.0934C11.9056 12.4661 10.3211 14.1534 7.92859 14.1534ZM16.2143 10.5192H14.9196V11.8171H13.8839V10.5192H12.5893V9.4808H13.8839V8.18289H14.9196V9.4808H16.2143V10.5192Z" fill="white" fill-opacity="0.75"/>
</svg>
