<svg width="18" height="18" viewBox="0 0 18 18" fill="none" xmlns="http://www.w3.org/2000/svg">
<path d="M9.67333 9.792C10.0847 10.8673 10.388 11.974 10.5807 13.1073C9.09267 13.6813 7.49067 13.4033 6.29533 12.4707C7.17067 11.0987 8.288 10.2053 9.67333 9.792ZM9.32 8.93467C9.22467 8.72133 9.126 8.50933 9.022 8.298C7.78667 8.68733 6.31 8.884 4.6 8.88667L4.59333 9C4.59333 10.0693 4.97733 11.0513 5.614 11.8153C6.57933 10.3667 7.818 9.40467 9.32 8.93467ZM7.012 5.07333C5.88 5.64867 5.03267 6.696 4.724 7.95667C6.21467 7.946 7.504 7.78267 8.58467 7.46533C8.12733 6.646 7.604 5.848 7.012 5.07333ZM11.686 5.51533C10.9413 4.94067 10.012 4.594 9 4.594C8.626 4.594 8.26533 4.646 7.91933 4.734C8.50133 5.51667 9.018 6.32333 9.47 7.15067C10.4113 6.752 11.15 6.206 11.686 5.51533ZM17 4.33333V13.6667C17 15.5073 15.508 17 13.6667 17H4.33333C2.492 17 1 15.5073 1 13.6667V4.33333C1 2.49267 2.492 1 4.33333 1H13.6667C15.508 1 17 2.49267 17 4.33333ZM14.3333 9C14.3333 6.05467 11.9453 3.66667 9 3.66667C6.05467 3.66667 3.66667 6.05467 3.66667 9C3.66667 11.9453 6.05467 14.3333 9 14.3333C11.9453 14.3333 14.3333 11.9453 14.3333 9ZM9.896 7.972C10.016 8.21933 10.128 8.46867 10.2373 8.71867C11.1967 8.55333 12.2493 8.56333 13.3933 8.75133C13.3373 7.766 12.9613 6.86667 12.362 6.158C11.7473 6.924 10.922 7.528 9.896 7.972ZM10.5927 9.59667C10.9653 10.594 11.2513 11.6167 11.4453 12.662C12.4453 11.992 13.1527 10.922 13.348 9.684C12.344 9.51 11.426 9.47933 10.5927 9.59667Z" fill="white" fill-opacity="0.75"/>
</svg>
