<svg width="23" height="18" viewBox="0 0 23 18" fill="none" xmlns="http://www.w3.org/2000/svg">
<path d="M7.28976 17C14.8373 17 18.9648 10.845 18.9648 5.50756C18.9648 5.33274 18.9611 5.1587 18.9532 4.98546C19.7544 4.41531 20.4507 3.70382 21 2.89388C20.2648 3.21557 19.4736 3.43213 18.6436 3.52978C19.4908 3.02972 20.1412 2.23869 20.448 1.2957C19.6552 1.75835 18.7772 2.09461 17.8424 2.27615C17.0936 1.49105 16.0276 0.999999 14.8472 0.999999C12.5812 0.999999 10.7436 2.80889 10.7436 5.03861C10.7436 5.35557 10.7796 5.66387 10.85 5.9596C7.43968 5.79068 4.41563 4.18341 2.39176 1.73945C2.03936 2.33636 1.83616 3.02974 1.83616 3.76959C1.83616 5.17093 2.56058 6.40804 3.66218 7.13177C2.98897 7.1113 2.35656 6.92938 1.80382 6.62659C1.80321 6.64354 1.80321 6.66006 1.80321 6.67817C1.80321 8.63432 3.21762 10.2675 5.09518 10.6376C4.75038 10.7302 4.38761 10.7798 4.01318 10.7798C3.74918 10.7798 3.49198 10.7542 3.24198 10.7069C3.76438 12.3118 5.2792 13.4797 7.07515 13.5123C5.67074 14.5959 3.90157 15.2413 1.97878 15.2413C1.64798 15.2413 1.32118 15.2228 0.999998 15.1854C2.81601 16.3312 4.97236 16.9997 7.28998 16.9997" fill="white" fill-opacity="0.75"/>
</svg>
