<svg width="18" height="18" viewBox="0 0 18 18" fill="none" xmlns="http://www.w3.org/2000/svg">
<path d="M13.6667 1H4.33333C2.49267 1 1 2.49267 1 4.33333V13.6667C1 15.5073 2.49267 17 4.33333 17H13.6667C15.508 17 17 15.5073 17 13.6667V4.33333C17 2.49267 15.508 1 13.6667 1ZM6.33333 13.6667H4.33333V6.33333H6.33333V13.6667ZM5.33333 5.488C4.68933 5.488 4.16667 4.96133 4.16667 4.312C4.16667 3.66267 4.68933 3.136 5.33333 3.136C5.97733 3.136 6.5 3.66267 6.5 4.312C6.5 4.96133 5.978 5.488 5.33333 5.488ZM14.3333 13.6667H12.3333V9.93067C12.3333 7.68533 9.66667 7.85533 9.66667 9.93067V13.6667H7.66667V6.33333H9.66667V7.51C10.5973 5.786 14.3333 5.65867 14.3333 9.16067V13.6667Z" fill="white" fill-opacity="0.75"/>
</svg>
