<svg width="18" height="18" viewBox="0 0 18 18" fill="none" xmlns="http://www.w3.org/2000/svg">
<path d="M5.44444 1C2.98958 1 1 2.98958 1 5.44444V12.5556C1 15.0104 2.98958 17 5.44444 17H12.5556C15.0104 17 17 15.0104 17 12.5556V5.44444C17 2.98958 15.0104 1 12.5556 1H5.44444ZM14.3333 2.77778C14.8229 2.77778 15.2222 3.17708 15.2222 3.66667C15.2222 4.15625 14.8229 4.55556 14.3333 4.55556C13.8438 4.55556 13.4444 4.15625 13.4444 3.66667C13.4444 3.17708 13.8438 2.77778 14.3333 2.77778ZM9 4.55556C11.4549 4.55556 13.4444 6.54514 13.4444 9C13.4444 11.4549 11.4549 13.4444 9 13.4444C6.54514 13.4444 4.55556 11.4549 4.55556 9C4.55556 6.54514 6.54514 4.55556 9 4.55556ZM9 6.33333C7.52778 6.33333 6.33333 7.52778 6.33333 9C6.33333 10.4722 7.52778 11.6667 9 11.6667C10.4722 11.6667 11.6667 10.4722 11.6667 9C11.6667 7.52778 10.4722 6.33333 9 6.33333Z" fill="white" fill-opacity="0.75"/>
</svg>
