<svg width="79" height="84" viewBox="0 0 79 84" fill="none" xmlns="http://www.w3.org/2000/svg">
<g clip-path="url(#clip0_1339_746)">
<path d="M73.618 3.77527H12.1741C7.53554 3.77527 3.77527 7.53554 3.77527 12.1741V12.1741C3.77527 16.8126 7.53554 20.5729 12.1741 20.5729H64.7771C69.6598 20.5729 73.618 24.5311 73.618 29.4137V29.4137C73.618 34.2964 69.6598 38.2546 64.7771 38.2546H12.6161C7.73345 38.2546 3.77527 42.2128 3.77527 47.0954V47.0954C3.77527 51.9781 7.73345 55.9363 12.6161 55.9363H64.7771C69.6598 55.9363 73.618 59.8945 73.618 64.7771V64.7771C73.618 69.6598 69.6598 73.618 64.7771 73.618H10.323" stroke="white" stroke-width="6.13483" stroke-linecap="round"/>
<path d="M-4.59983e-07 74.0899L15.1319 65.7275C16.39 65.0322 17.9326 65.9422 17.9326 67.3797L17.9326 80.8001C17.9326 82.2376 16.39 83.1475 15.1319 82.4523L-4.59983e-07 74.0899Z" fill="#4FA150"/>
</g>
<defs>
<clipPath id="clip0_1339_746">
<rect width="78.3371" height="84" fill="white"/>
</clipPath>
</defs>
</svg>
